PathFileType	4	(X/Y/Z)	D:\Share\Shared_Data\Ergonomics\Sit To Stand Pertubation\S0\Free STS.trc
DataRate	CameraRate	NumFrames	NumMarkers	Units	OrigDataRate	OrigDataStartFrame	OrigNumFrames	
100	100	11	18	m	100	3874	211
Frame#	Time	R_Toe			R_ASIS			R_Pelvis			V_Sacral			L_Pelvis			L_ASIS			Clavical			R_Acromium			L_Acromium			Sternum			Torso			R_Thigh_Med			R_Thigh_Lat			R_Thigh			R_Shank_Med			R_Shank_Lat			R_Shank			R_Heel			
		X1	Y1	Z1	X2	Y2	Z2	X3	Y3	Z3	X4	Y4	Z4	X5	Y5	Z5	X6	Y6	Z6	X7	Y7	Z7	X8	Y8	Z8	X9	Y9	Z9	X10	Y10	Z10	X11	Y11	Z11	X12	Y12	Z12	X13	Y13	Z13	X14	Y14	Z14	X15	Y15	Z15	X16	Y16	Z16	X17	Y17	Z17	X18	Y18	Z18	

3874	25.16	0.37576837	0.049669064	0.14495947	-0.073008148	0.74415405	0.14393542	-0.20129451	0.72386383	0.1864493	-0.31180511	0.68843848	-0.045073078	-0.16767398	0.71447009	-0.22203783	-0.048245224	0.73906903	-0.17236002	-0.039515118	1.1190393	-0.018255236	-0.12475249	1.1808478	0.1214813	-0.1264779	1.1854292	-0.16940204	-0.010975765	1.0256843	-0.035042736	-0.033071697	1.0718051	-0.14108983	0.2822832	0.49555826	0.078197731	0.25594562	0.51440759	0.21006291	0.18489494	0.64716736	0.12309272	0.25332475	0.1066385	0.11077892	0.19486923	0.091949577	0.1975985	0.23398717	0.31406879	0.22073517	0.15642822	0.049348343	0.15035501
3875	25.17	0.37569009	0.049753223	0.1449196	-0.07284668	0.74410211	0.1439418	-0.20122112	0.72397131	0.18643793	-0.3117644	0.68855176	-0.045054909	-0.16764238	0.7145907	-0.22204659	-0.048228428	0.73896613	-0.17237691	-0.037445702	1.1184397	-0.01823526	-0.12235142	1.1806252	0.12151112	-0.12409409	1.185264	-0.1693295	-0.0094344645	1.0249264	-0.035051949	-0.031253244	1.0712469	-0.1410807	0.28215649	0.4955914	0.078115623	0.25583759	0.51443152	0.2099897	0.18483734	0.64720062	0.12305375	0.25326595	0.10665945	0.11075626	0.19479987	0.091965668	0.19759996	0.23388297	0.31409384	0.22068733	0.15638248	0.049313797	0.15034157
3876	25.18	0.37561667	0.049831734	0.14488269	-0.072629616	0.74406323	0.14394211	-0.20112222	0.72408502	0.18641881	-0.31171716	0.68869116	-0.045045731	-0.16758267	0.71472284	-0.22206055	-0.04817207	0.73886273	-0.17240399	-0.035245567	1.1177904	-0.018215485	-0.11979421	1.1803774	0.12154388	-0.12156907	1.1850752	-0.16924995	-0.0077937088	1.0241139	-0.035060188	-0.029326931	1.0706478	-0.141073	0.28203772	0.49562561	0.078048286	0.25572804	0.51445459	0.20992981	0.18478667	0.64723273	0.12302282	0.25321031	0.10668096	0.11073674	0.19473917	0.091979927	0.19759741	0.23377733	0.3141171	0.22064757	0.15634052	0.049283504	0.15032648
3877	25.19	0.37554865	0.049904137	0.14484628	-0.072350357	0.74404132	0.14393826	-0.20099554	0.72420667	0.18639313	-0.31166196	0.68886102	-0.045046848	-0.16749644	0.71486859	-0.22207996	-0.048068855	0.73876068	-0.17244087	-0.03291275	1.1170898	-0.018196537	-0.11707674	1.1801017	0.12157996	-0.11890333	1.184863	-0.16916325	-0.0060535359	1.0232454	-0.035068436	-0.02729344	1.0700015	-0.14106593	0.28192621	0.49566022	0.077994453	0.25561798	0.51447626	0.20988214	0.18474324	0.64726245	0.12299999	0.25315654	0.10670245	0.11072047	0.19468777	0.091991821	0.19759097	0.23367186	0.31413931	0.22061504	0.15630229	0.049257599	0.15031203
3878	25.2	0.37548636	0.049969894	0.14480867	-0.072009262	0.7440351	0.14393205	-0.20083945	0.72433759	0.18636261	-0.311595	0.68906293	-0.045056881	-0.16738585	0.71502966	-0.22210612	-0.04791473	0.73865936	-0.17248642	-0.030444807	1.1163369	-0.018178627	-0.11419565	1.179795	0.12161983	-0.11609678	1.1846289	-0.16906912	-0.0042142749	1.0223205	-0.035077652	-0.025152067	1.0693035	-0.14105833	0.28182098	0.49569421	0.07795195	0.25550861	0.51449573	0.20984518	0.18470689	0.64728876	0.12298437	0.25310332	0.1067232	0.1107073	0.19464526	0.092000687	0.19758215	0.23356799	0.31416092	0.22058867	0.15626721	0.049235367	0.15030057
3879	25.21	0.3754295	0.050028774	0.14476915	-0.071617386	0.74403522	0.14392407	-0.20065282	0.72447876	0.18632906	-0.31151117	0.68929602	-0.04507275	-0.16725291	0.71520648	-0.22214043	-0.047707283	0.7385575	-0.17253908	-0.027838591	1.115532	-0.018161591	-0.11114835	1.1794561	0.12166385	-0.11314817	1.1843734	-0.16896704	-0.0022754984	1.0213407	-0.035088524	-0.022900383	1.0685519	-0.14104897	0.28172028	0.49572635	0.077918472	0.25540123	0.5145127	0.20981711	0.18467726	0.64731042	0.12297414	0.25304932	0.10674248	0.11069685	0.19461028	0.092005989	0.19757286	0.23346712	0.31418204	0.22056752	0.1562343	0.04921558	0.15029356
3880	25.22	0.37537729	0.050081341	0.14472807	-0.071197586	0.74402289	0.14391316	-0.20043553	0.72463116	0.18629436	-0.31140594	0.68955872	-0.045091549	-0.16709871	0.71539923	-0.2221834	-0.04744556	0.73845435	-0.1725968	-0.025091305	1.1146764	-0.018144981	-0.10793287	1.1790836	0.12171208	-0.11005492	1.1840962	-0.16885643	-0.00023540069	1.020308	-0.035101295	-0.020534328	1.0677472	-0.14103688	0.28162189	0.49575555	0.077892029	0.25529718	0.51452692	0.20979604	0.18465363	0.64732739	0.12296713	0.25299359	0.10675964	0.11068851	0.19458022	0.09200779	0.19756476	0.23337004	0.31420242	0.22055075	0.15620248	0.04919696	0.15029115
3881	25.23	0.37532816	0.050129021	0.14468607	-0.070780823	0.74397253	0.1438969	-0.20018808	0.72479504	0.18626025	-0.31127594	0.68985089	-0.045111679	-0.1669231	0.7156076	-0.22223424	-0.047131039	0.73834912	-0.17265726	-0.022201607	1.1137721	-0.018128025	-0.10454797	1.1786768	0.12176406	-0.106813	1.1837972	-0.16873705	0.0019096171	1.019225	-0.035115593	-0.018048557	1.0668915	-0.14102164	0.28152353	0.49578079	0.07787114	0.25519774	0.51453833	0.2097802	0.18463539	0.64733948	0.12296128	0.25293565	0.10677424	0.11068143	0.19455099	0.092007095	0.19755949	0.23327701	0.31422122	0.22053748	0.15617081	0.049178158	0.15029199
3882	25.24	0.37527979	0.050173752	0.14464331	-0.070397667	0.74385907	0.14387233	-0.19991141	0.72497003	0.18622823	-0.31111816	0.69017322	-0.045132656	-0.16672466	0.71583185	-0.22229079	-0.046769459	0.73824127	-0.17271776	-0.019169125	1.1128212	-0.018109743	-0.10099313	1.1782347	0.12181916	-0.10341716	1.1834757	-0.16860904	0.0041652203	1.0180939	-0.035130852	-0.015436682	1.0659872	-0.14100298	0.28142358	0.49580099	0.077854591	0.25510347	0.51454718	0.20976804	0.18462218	0.64734692	0.12295517	0.25287556	0.10678615	0.1106746	0.19451778	0.092005539	0.19755817	0.23318755	0.31423758	0.22052681	0.15613837	0.049157688	0.15029352
3883	25.25	0.37522977	0.050217453	0.14459944	-0.070064507	0.7436684	0.14383826	-0.19960626	0.72515546	0.18619971	-0.3109299	0.69052759	-0.045154392	-0.16650128	0.71607312	-0.22234943	-0.046372543	0.73812799	-0.17277518	-0.015993154	1.111825	-0.018089434	-0.097268562	1.1777568	0.12187685	-0.099860985	1.1831301	-0.16847267	0.0065382023	1.0169164	-0.035146542	-0.012691533	1.0650366	-0.1409803	0.28132114	0.49581509	0.077841148	0.25501463	0.51455322	0.20975816	0.18461406	0.64734998	0.1229483	0.25281343	0.10679525	0.11066676	0.19447749	0.09200399	0.19756027	0.2331004	0.31425061	0.2205179	0.15610445	0.049134209	0.15029283
3884	25.26	0.37517618	0.05026141	0.14455394	-0.069769501	0.74340881	0.14379771	-0.19927275	0.72535095	0.18617598	-0.31070844	0.69091608	-0.045176544	-0.16625078	0.71633276	-0.22240631	-0.045957279	0.73800488	-0.17282629	-0.012671377	1.1107838	-0.018066824	-0.093374916	1.1772415	0.12193686	-0.096137436	1.1827582	-0.1683282	0.0090349874	1.0156927	-0.035161812	-0.009805769	1.0640405	-0.14095267	0.28121616	0.49582208	0.077829437	0.25493094	0.51455627	0.20974928	0.18461163	0.64734814	0.12294087	0.25274855	0.10680116	0.11065684	0.19443074	0.092001755	0.19756299	0.23301402	0.31425992	0.22050978	0.15606862	0.049106758	0.15028772
